<svg width="97" height="97" viewBox="0 0 97 97" fill="none" xmlns="http://www.w3.org/2000/svg">
<path d="M68.8508 73.8998C83.9882 73.8998 96.2595 61.8581 96.2595 47.0038C96.2595 32.1495 83.9882 20.1077 68.8508 20.1077C53.7133 20.1077 41.442 32.1495 41.442 47.0038C41.442 61.8581 53.7133 73.8998 68.8508 73.8998Z" fill="#FCB641"/>
<path d="M67.7157 13.1911C66.8258 13.1911 66.1035 12.4688 66.1035 11.5788V1.9051C66.1035 1.01512 66.8258 0.292816 67.7157 0.292816C68.6057 0.292816 69.328 1.01512 69.328 1.9051V11.5788C69.328 12.4688 68.6057 13.1911 67.7157 13.1911Z" fill="#FCB641"/>
<path d="M88.5464 19.903C88.1337 19.903 87.7209 19.745 87.4065 19.4306C86.7761 18.8002 86.7761 17.7812 87.4065 17.1508L94.2474 10.3099C94.8778 9.6795 95.8968 9.6795 96.5272 10.3099C97.1576 10.9403 97.1576 11.9593 96.5272 12.5897L89.6863 19.4306C89.3719 19.745 88.9591 19.903 88.5464 19.903Z" fill="#FCB641"/>
<path d="M42.1143 24.6721C41.7016 24.6721 41.2888 24.5141 40.9744 24.1997L34.1352 17.3604C33.5048 16.73 33.5048 15.7111 34.1352 15.0807C34.7656 14.4502 35.7845 14.4502 36.4149 15.0807L43.2542 21.9199C43.8846 22.5503 43.8846 23.5693 43.2542 24.1997C42.9398 24.5141 42.5271 24.6721 42.1143 24.6721Z" fill="#FCB641"/>
<path d="M85.8958 72.8454C85.6701 72.8454 77.3008 72.8454 77.3008 72.8454C77.4507 71.2332 77.5507 71.0945 77.5539 70.1304C77.5797 61.5305 71.8384 54.0172 63.44 52.1663C58.6531 51.1119 54.0839 51.8906 50.3031 53.9318C45.6904 47.0667 38.0482 42.4362 29.2887 41.9009C28.1617 41.7462 27.0202 41.6543 25.8513 41.6543C11.5746 41.6543 0 53.598 0 68.3214C0 75.9942 3.16168 82.8932 8.19199 87.7574C12.6403 92.6926 18.8169 95.8817 26.1302 96.4121C26.1302 96.4121 85.6701 96.7072 85.8958 96.7072C91.8838 96.7072 96.7368 91.2238 96.7368 84.7747C96.7368 78.3288 91.8822 72.8454 85.8958 72.8454Z" fill="white"/>
</svg>
