<svg xmlns="http://www.w3.org/2000/svg" width="53.977" height="46.03" viewBox="0 0 53.977 46.03">
  <g id="Group_13593" data-name="Group 13593" transform="translate(-656.512 -275.7)">
    <circle id="Ellipse_671" data-name="Ellipse 671" cx="1.419" cy="1.419" r="1.419" transform="translate(661.904 280.922)" fill="#ffffff"/>
    <circle id="Ellipse_672" data-name="Ellipse 672" cx="1.419" cy="1.419" r="1.419" transform="translate(666.047 280.922)" fill="#ffffff"/>
    <circle id="Ellipse_673" data-name="Ellipse 673" cx="1.419" cy="1.419" r="1.419" transform="translate(670.133 280.922)" fill="#ffffff"/>
    <path id="Path_3048" data-name="Path 3048" d="M52.674,9.5H6.246A3.742,3.742,0,0,0,2.5,13.246V51.785a3.742,3.742,0,0,0,3.746,3.746H52.731a3.742,3.742,0,0,0,3.746-3.746V13.246A3.829,3.829,0,0,0,52.674,9.5ZM6.246,12.395H52.731a.873.873,0,0,1,.851.851v6.641H5.395V13.246A.873.873,0,0,1,6.246,12.395ZM52.674,52.579H6.246a.873.873,0,0,1-.851-.851v-29H53.525v29A.873.873,0,0,1,52.674,52.579Z" transform="translate(654.012 266.2)" fill="#ffffff"/>
    <path id="Path_3049" data-name="Path 3049" d="M34.519,50.541l1.589-1.589L37.7,50.541a1.512,1.512,0,0,0,2.043,0,1.439,1.439,0,0,0,0-2.043l-1.589-1.589,1.589-1.589A1.445,1.445,0,0,0,37.7,43.276l-1.589,1.589-1.589-1.589a1.445,1.445,0,1,0-2.043,2.043l1.589,1.589L32.476,48.5a1.439,1.439,0,0,0,0,2.043,1.512,1.512,0,0,0,2.043,0Z" transform="translate(641.234 251.779)" fill="#ffffff"/>
    <path id="Path_3050" data-name="Path 3050" d="M61.341,43.376a1.439,1.439,0,0,0-2.043,0l-1.589,1.589-1.589-1.589a1.445,1.445,0,0,0-2.043,2.043l1.589,1.589L54.076,48.6a1.439,1.439,0,0,0,0,2.043,1.512,1.512,0,0,0,2.043,0l1.589-1.589L59.3,50.641a1.512,1.512,0,0,0,2.043,0,1.439,1.439,0,0,0,0-2.043l-1.589-1.646,1.589-1.589A1.371,1.371,0,0,0,61.341,43.376Z" transform="translate(631.893 251.736)" fill="#ffffff"/>
    <path id="Path_3051" data-name="Path 3051" d="M43.024,61.4A9.885,9.885,0,0,0,34,67.3a1.423,1.423,0,1,0,2.611,1.135,6.868,6.868,0,0,1,12.657,0,1.4,1.4,0,0,0,1.305.851,2.017,2.017,0,0,0,.568-.114,1.391,1.391,0,0,0,.738-1.873A9.474,9.474,0,0,0,43.024,61.4Z" transform="translate(640.448 243.757)" fill="#ffffff"/>
  </g>
</svg>
